<mxfile host="app.diagrams.net" modified="2023-09-04T07:29:21.834Z" agent="Mozilla/5.0 (Windows NT 10.0; Win64; x64; rv:109.0) Gecko/20100101 Firefox/117.0" etag="S_omFIqZdWhsIqVBonjH" version="21.6.9" type="github">
  <diagram id="C5RBs43oDa-KdzZeNtuy" name="Page-1">
    <mxGraphModel dx="1434" dy="774" grid="1" gridSize="10" guides="1" tooltips="1" connect="1" arrows="1" fold="1" page="1" pageScale="1" pageWidth="827" pageHeight="1169" math="0" shadow="0">
      <root>
        <mxCell id="WIyWlLk6GJQsqaUBKTNV-0" />
        <mxCell id="WIyWlLk6GJQsqaUBKTNV-1" parent="WIyWlLk6GJQsqaUBKTNV-0" />
        <mxCell id="ds5lJaWGJ-KXMb3ab-MM-2" style="edgeStyle=none;rounded=0;orthogonalLoop=1;jettySize=auto;html=1;exitX=0.5;exitY=1;exitDx=0;exitDy=0;exitPerimeter=0;endArrow=none;endFill=0;" edge="1" parent="WIyWlLk6GJQsqaUBKTNV-1" source="ds5lJaWGJ-KXMb3ab-MM-0">
          <mxGeometry relative="1" as="geometry">
            <mxPoint x="400" y="210" as="targetPoint" />
          </mxGeometry>
        </mxCell>
        <mxCell id="ds5lJaWGJ-KXMb3ab-MM-0" value="Login Usuarios" style="strokeWidth=2;html=1;shape=mxgraph.flowchart.start_1;whiteSpace=wrap;" vertex="1" parent="WIyWlLk6GJQsqaUBKTNV-1">
          <mxGeometry x="340" y="80" width="120" height="60" as="geometry" />
        </mxCell>
        <mxCell id="ds5lJaWGJ-KXMb3ab-MM-10" style="edgeStyle=orthogonalEdgeStyle;rounded=0;orthogonalLoop=1;jettySize=auto;html=1;exitX=0.5;exitY=1;exitDx=0;exitDy=0;exitPerimeter=0;entryX=0.5;entryY=0;entryDx=0;entryDy=0;" edge="1" parent="WIyWlLk6GJQsqaUBKTNV-1" target="ds5lJaWGJ-KXMb3ab-MM-3">
          <mxGeometry relative="1" as="geometry">
            <mxPoint x="150" y="320" as="targetPoint" />
            <mxPoint x="400" y="200" as="sourcePoint" />
            <Array as="points">
              <mxPoint x="400" y="340" />
              <mxPoint x="400" y="340" />
            </Array>
          </mxGeometry>
        </mxCell>
        <mxCell id="ds5lJaWGJ-KXMb3ab-MM-14" style="rounded=0;orthogonalLoop=1;jettySize=auto;html=1;exitX=0.5;exitY=1;exitDx=0;exitDy=0;exitPerimeter=0;entryX=0.5;entryY=0;entryDx=0;entryDy=0;edgeStyle=orthogonalEdgeStyle;" edge="1" parent="WIyWlLk6GJQsqaUBKTNV-1" target="ds5lJaWGJ-KXMb3ab-MM-7">
          <mxGeometry relative="1" as="geometry">
            <mxPoint x="400" y="200" as="sourcePoint" />
          </mxGeometry>
        </mxCell>
        <mxCell id="ds5lJaWGJ-KXMb3ab-MM-15" style="edgeStyle=orthogonalEdgeStyle;rounded=0;orthogonalLoop=1;jettySize=auto;html=1;exitX=0.5;exitY=1;exitDx=0;exitDy=0;exitPerimeter=0;entryX=0.5;entryY=0;entryDx=0;entryDy=0;" edge="1" parent="WIyWlLk6GJQsqaUBKTNV-1" target="ds5lJaWGJ-KXMb3ab-MM-5">
          <mxGeometry relative="1" as="geometry">
            <mxPoint x="400" y="200" as="sourcePoint" />
          </mxGeometry>
        </mxCell>
        <mxCell id="ds5lJaWGJ-KXMb3ab-MM-18" style="edgeStyle=orthogonalEdgeStyle;rounded=0;orthogonalLoop=1;jettySize=auto;html=1;exitX=1;exitY=0.5;exitDx=0;exitDy=0;entryX=0;entryY=0.5;entryDx=0;entryDy=0;" edge="1" parent="WIyWlLk6GJQsqaUBKTNV-1" source="ds5lJaWGJ-KXMb3ab-MM-3" target="ds5lJaWGJ-KXMb3ab-MM-5">
          <mxGeometry relative="1" as="geometry" />
        </mxCell>
        <mxCell id="ds5lJaWGJ-KXMb3ab-MM-21" style="edgeStyle=orthogonalEdgeStyle;rounded=0;orthogonalLoop=1;jettySize=auto;html=1;exitX=0;exitY=0.5;exitDx=0;exitDy=0;entryX=1;entryY=0.5;entryDx=0;entryDy=0;" edge="1" parent="WIyWlLk6GJQsqaUBKTNV-1" source="ds5lJaWGJ-KXMb3ab-MM-3" target="ds5lJaWGJ-KXMb3ab-MM-7">
          <mxGeometry relative="1" as="geometry" />
        </mxCell>
        <mxCell id="ds5lJaWGJ-KXMb3ab-MM-22" style="edgeStyle=orthogonalEdgeStyle;rounded=0;orthogonalLoop=1;jettySize=auto;html=1;exitX=0;exitY=0.5;exitDx=0;exitDy=0;entryX=1;entryY=0.5;entryDx=0;entryDy=0;" edge="1" parent="WIyWlLk6GJQsqaUBKTNV-1" source="ds5lJaWGJ-KXMb3ab-MM-3" target="ds5lJaWGJ-KXMb3ab-MM-6">
          <mxGeometry relative="1" as="geometry" />
        </mxCell>
        <mxCell id="ds5lJaWGJ-KXMb3ab-MM-26" style="edgeStyle=orthogonalEdgeStyle;rounded=0;orthogonalLoop=1;jettySize=auto;html=1;exitX=0;exitY=0.5;exitDx=0;exitDy=0;entryX=1;entryY=0.5;entryDx=0;entryDy=0;" edge="1" parent="WIyWlLk6GJQsqaUBKTNV-1" source="ds5lJaWGJ-KXMb3ab-MM-3" target="ds5lJaWGJ-KXMb3ab-MM-8">
          <mxGeometry relative="1" as="geometry" />
        </mxCell>
        <mxCell id="ds5lJaWGJ-KXMb3ab-MM-28" style="edgeStyle=orthogonalEdgeStyle;rounded=0;orthogonalLoop=1;jettySize=auto;html=1;exitX=0;exitY=0.5;exitDx=0;exitDy=0;entryX=1;entryY=0.5;entryDx=0;entryDy=0;" edge="1" parent="WIyWlLk6GJQsqaUBKTNV-1" source="ds5lJaWGJ-KXMb3ab-MM-3" target="ds5lJaWGJ-KXMb3ab-MM-9">
          <mxGeometry relative="1" as="geometry" />
        </mxCell>
        <mxCell id="ds5lJaWGJ-KXMb3ab-MM-3" value="Productos" style="shape=internalStorage;whiteSpace=wrap;html=1;dx=15;dy=15;rounded=1;arcSize=8;strokeWidth=2;" vertex="1" parent="WIyWlLk6GJQsqaUBKTNV-1">
          <mxGeometry x="350" y="390" width="100" height="70" as="geometry" />
        </mxCell>
        <mxCell id="ds5lJaWGJ-KXMb3ab-MM-19" style="edgeStyle=orthogonalEdgeStyle;rounded=0;orthogonalLoop=1;jettySize=auto;html=1;exitX=0.5;exitY=1;exitDx=0;exitDy=0;entryX=0.5;entryY=0;entryDx=0;entryDy=0;" edge="1" parent="WIyWlLk6GJQsqaUBKTNV-1" source="ds5lJaWGJ-KXMb3ab-MM-5" target="ds5lJaWGJ-KXMb3ab-MM-16">
          <mxGeometry relative="1" as="geometry" />
        </mxCell>
        <mxCell id="ds5lJaWGJ-KXMb3ab-MM-24" style="edgeStyle=orthogonalEdgeStyle;rounded=0;orthogonalLoop=1;jettySize=auto;html=1;exitX=0;exitY=0.5;exitDx=0;exitDy=0;entryX=1;entryY=0.5;entryDx=0;entryDy=0;" edge="1" parent="WIyWlLk6GJQsqaUBKTNV-1" source="ds5lJaWGJ-KXMb3ab-MM-5" target="ds5lJaWGJ-KXMb3ab-MM-3">
          <mxGeometry relative="1" as="geometry" />
        </mxCell>
        <mxCell id="ds5lJaWGJ-KXMb3ab-MM-5" value="Ofertas" style="shape=internalStorage;whiteSpace=wrap;html=1;dx=15;dy=15;rounded=1;arcSize=8;strokeWidth=2;" vertex="1" parent="WIyWlLk6GJQsqaUBKTNV-1">
          <mxGeometry x="610" y="240" width="150" height="70" as="geometry" />
        </mxCell>
        <mxCell id="ds5lJaWGJ-KXMb3ab-MM-6" value="Clientes" style="shape=internalStorage;whiteSpace=wrap;html=1;dx=15;dy=15;rounded=1;arcSize=8;strokeWidth=2;" vertex="1" parent="WIyWlLk6GJQsqaUBKTNV-1">
          <mxGeometry x="50" y="360" width="160" height="70" as="geometry" />
        </mxCell>
        <mxCell id="ds5lJaWGJ-KXMb3ab-MM-23" style="edgeStyle=orthogonalEdgeStyle;rounded=0;orthogonalLoop=1;jettySize=auto;html=1;exitX=1;exitY=0.5;exitDx=0;exitDy=0;entryX=0;entryY=0.5;entryDx=0;entryDy=0;" edge="1" parent="WIyWlLk6GJQsqaUBKTNV-1" source="ds5lJaWGJ-KXMb3ab-MM-7" target="ds5lJaWGJ-KXMb3ab-MM-3">
          <mxGeometry relative="1" as="geometry" />
        </mxCell>
        <mxCell id="ds5lJaWGJ-KXMb3ab-MM-7" value="Proveedores" style="shape=internalStorage;whiteSpace=wrap;html=1;dx=15;dy=15;rounded=1;arcSize=8;strokeWidth=2;" vertex="1" parent="WIyWlLk6GJQsqaUBKTNV-1">
          <mxGeometry x="50" y="240" width="160" height="70" as="geometry" />
        </mxCell>
        <mxCell id="ds5lJaWGJ-KXMb3ab-MM-25" style="edgeStyle=orthogonalEdgeStyle;rounded=0;orthogonalLoop=1;jettySize=auto;html=1;exitX=1;exitY=0.5;exitDx=0;exitDy=0;entryX=0;entryY=0.5;entryDx=0;entryDy=0;" edge="1" parent="WIyWlLk6GJQsqaUBKTNV-1" source="ds5lJaWGJ-KXMb3ab-MM-8" target="ds5lJaWGJ-KXMb3ab-MM-3">
          <mxGeometry relative="1" as="geometry" />
        </mxCell>
        <mxCell id="ds5lJaWGJ-KXMb3ab-MM-8" value="Depositos" style="shape=internalStorage;whiteSpace=wrap;html=1;dx=15;dy=15;rounded=1;arcSize=8;strokeWidth=2;" vertex="1" parent="WIyWlLk6GJQsqaUBKTNV-1">
          <mxGeometry x="50" y="500" width="160" height="70" as="geometry" />
        </mxCell>
        <mxCell id="ds5lJaWGJ-KXMb3ab-MM-27" style="edgeStyle=orthogonalEdgeStyle;rounded=0;orthogonalLoop=1;jettySize=auto;html=1;exitX=1;exitY=0.5;exitDx=0;exitDy=0;entryX=0;entryY=0.5;entryDx=0;entryDy=0;" edge="1" parent="WIyWlLk6GJQsqaUBKTNV-1" source="ds5lJaWGJ-KXMb3ab-MM-9" target="ds5lJaWGJ-KXMb3ab-MM-3">
          <mxGeometry relative="1" as="geometry" />
        </mxCell>
        <mxCell id="ds5lJaWGJ-KXMb3ab-MM-9" value="Transportitas" style="shape=internalStorage;whiteSpace=wrap;html=1;dx=15;dy=15;rounded=1;arcSize=8;strokeWidth=2;" vertex="1" parent="WIyWlLk6GJQsqaUBKTNV-1">
          <mxGeometry x="50" y="650" width="160" height="70" as="geometry" />
        </mxCell>
        <mxCell id="ds5lJaWGJ-KXMb3ab-MM-20" style="edgeStyle=orthogonalEdgeStyle;rounded=0;orthogonalLoop=1;jettySize=auto;html=1;exitX=0.5;exitY=1;exitDx=0;exitDy=0;entryX=0.5;entryY=0;entryDx=0;entryDy=0;" edge="1" parent="WIyWlLk6GJQsqaUBKTNV-1" source="ds5lJaWGJ-KXMb3ab-MM-16" target="ds5lJaWGJ-KXMb3ab-MM-17">
          <mxGeometry relative="1" as="geometry" />
        </mxCell>
        <mxCell id="ds5lJaWGJ-KXMb3ab-MM-16" value="&lt;div&gt;Contratos&lt;/div&gt;" style="shape=internalStorage;whiteSpace=wrap;html=1;dx=15;dy=15;rounded=1;arcSize=8;strokeWidth=2;" vertex="1" parent="WIyWlLk6GJQsqaUBKTNV-1">
          <mxGeometry x="610" y="370" width="150" height="70" as="geometry" />
        </mxCell>
        <mxCell id="ds5lJaWGJ-KXMb3ab-MM-33" style="edgeStyle=orthogonalEdgeStyle;rounded=0;orthogonalLoop=1;jettySize=auto;html=1;exitX=0.5;exitY=1;exitDx=0;exitDy=0;" edge="1" parent="WIyWlLk6GJQsqaUBKTNV-1" source="ds5lJaWGJ-KXMb3ab-MM-17" target="ds5lJaWGJ-KXMb3ab-MM-32">
          <mxGeometry relative="1" as="geometry" />
        </mxCell>
        <mxCell id="ds5lJaWGJ-KXMb3ab-MM-34" style="edgeStyle=orthogonalEdgeStyle;rounded=0;orthogonalLoop=1;jettySize=auto;html=1;exitX=0.5;exitY=1;exitDx=0;exitDy=0;entryX=0.5;entryY=0;entryDx=0;entryDy=0;" edge="1" parent="WIyWlLk6GJQsqaUBKTNV-1" source="ds5lJaWGJ-KXMb3ab-MM-17" target="ds5lJaWGJ-KXMb3ab-MM-30">
          <mxGeometry relative="1" as="geometry" />
        </mxCell>
        <mxCell id="ds5lJaWGJ-KXMb3ab-MM-17" value="Facturas" style="shape=internalStorage;whiteSpace=wrap;html=1;dx=15;dy=15;rounded=1;arcSize=8;strokeWidth=2;" vertex="1" parent="WIyWlLk6GJQsqaUBKTNV-1">
          <mxGeometry x="610" y="500" width="150" height="70" as="geometry" />
        </mxCell>
        <mxCell id="ds5lJaWGJ-KXMb3ab-MM-30" value="Venta" style="shape=parallelogram;html=1;strokeWidth=2;perimeter=parallelogramPerimeter;whiteSpace=wrap;rounded=1;arcSize=12;size=0.23;" vertex="1" parent="WIyWlLk6GJQsqaUBKTNV-1">
          <mxGeometry x="590" y="620" width="80" height="40" as="geometry" />
        </mxCell>
        <mxCell id="ds5lJaWGJ-KXMb3ab-MM-32" value="Alquiler" style="shape=parallelogram;html=1;strokeWidth=2;perimeter=parallelogramPerimeter;whiteSpace=wrap;rounded=1;arcSize=12;size=0.23;" vertex="1" parent="WIyWlLk6GJQsqaUBKTNV-1">
          <mxGeometry x="710" y="620" width="80" height="40" as="geometry" />
        </mxCell>
      </root>
    </mxGraphModel>
  </diagram>
</mxfile>
